<?xml version="1.0" ?><!DOCTYPE svg  PUBLIC '-//W3C//DTD SVG 1.1//EN'  'http://www.w3.org/Graphics/SVG/1.1/DTD/svg11.dtd'><svg enable-background="new 0 0 128 128" height="128px" id="Layer_1" version="1.1" viewBox="0 0 128 128" width="128px" xml:space="preserve" xmlns="http://www.w3.org/2000/svg" xmlns:xlink="http://www.w3.org/1999/xlink"><g><path d="M44.968,46.968c0-5.941-4.833-10.774-10.774-10.774H0V62h44.968V46.968z"/><path d="M44.968,81.032V66H0v25.807h34.193C40.134,91.807,44.968,86.974,44.968,81.032z"/><path d="M0,110.839c0,5.941,4.833,10.774,10.774,10.774h21.419V95.807H0V110.839z"/><path d="M79.184,83.032H48.816c-0.892,6.546-6.077,11.73-12.623,12.623v25.958h55.613V95.655   C85.261,94.763,80.076,89.578,79.184,83.032z"/><path d="M32.193,6.387H10.774C4.833,6.387,0,11.22,0,17.161v15.032h32.193V6.387z"/><path d="M117.226,6.387H95.807v25.806H128V17.161C128,11.22,123.167,6.387,117.226,6.387z"/><rect height="30.064" width="30.064" x="48.968" y="48.968"/><path d="M95.807,121.613h21.419c5.941,0,10.774-4.833,10.774-10.774V95.807H95.807V121.613z"/><path d="M48.816,44.968h30.368c0.893-6.546,6.077-11.73,12.623-12.623V6.387H36.193v25.958   C42.739,33.237,47.924,38.422,48.816,44.968z"/><path d="M83.032,81.032c0,5.941,4.833,10.774,10.774,10.774H128V66H83.032V81.032z"/><path d="M83.032,46.968V62H128V36.193H93.807C87.865,36.193,83.032,41.027,83.032,46.968z"/></g></svg>